<svg xmlns="http://www.w3.org/2000/svg" viewBox="0 0 88.93 110.16"><defs><style>.cls-1{isolation:isolate;}.cls-2,.cls-6{fill:#445563;}.cls-2,.cls-3,.cls-4,.cls-9{stroke:#000;stroke-width:1.5px;}.cls-2,.cls-3,.cls-9{stroke-linecap:round;stroke-linejoin:round;}.cls-3{fill:#ffd24f;}.cls-4{fill:#ffcdbb;stroke-miterlimit:10;}.cls-5{fill:#f2a59e;}.cls-7{fill:#ffbfae;}.cls-7,.cls-8{mix-blend-mode:darken;}.cls-8{fill:#e89c8e;}.cls-9{fill:#f99273;}</style></defs><g class="cls-1"><g id="레이어_2" data-name="레이어 2"><g id="Layer_1" data-name="Layer 1"><path class="cls-2" d="M73.07,23.38V34.73c0,.61,0,1.22-.08,1.82v38.8H27.8v-52a23.21,23.21,0,0,1,.28-3.56,22.64,22.64,0,0,1,44.71,0A23.21,23.21,0,0,1,73.07,23.38Z"/><path class="cls-3" d="M78.13,65.66H22.76c-5.56,0-10.06,5-10.06,11.13v27.82H88.18V76.79C88.18,70.64,83.68,65.66,78.13,65.66Z"/><path class="cls-4" d="M43.29,49.62v16a7.15,7.15,0,0,0,14.3,0v-16Z"/><rect class="cls-4" x="30.81" y="7.84" width="39.27" height="50.61" rx="19.63"/><ellipse class="cls-5" cx="38.92" cy="38.05" rx="4.38" ry="2.2"/><ellipse class="cls-5" cx="61.97" cy="38.05" rx="4.38" ry="2.2"/><rect class="cls-6" x="41.83" y="26.96" width="5.16" height="2.46" rx="1.23"/><rect class="cls-6" x="53.89" y="26.96" width="5.16" height="2.46" rx="1.23" transform="translate(112.95 56.39) rotate(-180)"/><path class="cls-7" d="M61.94,11.59a19.48,19.48,0,0,1,3.75,11.5V34.44A19.63,19.63,0,0,1,46.05,54.07h0a19.57,19.57,0,0,1-11.5-3.74A19.62,19.62,0,0,0,70.08,38.82V27.48A19.6,19.6,0,0,0,61.94,11.59Z"/><path class="cls-4" d="M28.56,28.5h2.25a0,0,0,0,1,0,0V40a0,0,0,0,1,0,0H28.56a3.34,3.34,0,0,1-3.34-3.34V31.85A3.34,3.34,0,0,1,28.56,28.5Z"/><path class="cls-4" d="M73.42,28.5h2.25a0,0,0,0,1,0,0V40a0,0,0,0,1,0,0H73.42a3.34,3.34,0,0,1-3.34-3.34V31.85A3.34,3.34,0,0,1,73.42,28.5Z" transform="translate(145.74 68.51) rotate(-180)"/><rect x="43.5" y="32.26" width="2.42" height="4.71" rx="1.21"/><rect x="54.97" y="32.26" width="2.42" height="4.71" rx="1.21" transform="translate(112.35 69.22) rotate(-180)"/><ellipse class="cls-8" cx="50.44" cy="38.68" rx="1.61" ry="1.09"/><path class="cls-2" d="M73.07,23.38a23.21,23.21,0,0,0-.28-3.56,22.64,22.64,0,0,0-44.71,0,23.21,23.21,0,0,0-.28,3.56v4.88h9l2.12-8.87L41,28.26h7.3l2.11-8.87,2.12,8.87h7.29L62,19.39l2.11,8.87h9Z"/><path class="cls-9" d="M50.44,47h0a7.69,7.69,0,0,1-6.5-3.59l-.64-1H57.58l-.64,1A7.69,7.69,0,0,1,50.44,47Z"/><path class="cls-4" d="M2.15,72.16l-.88-6.64a59.18,59.18,0,0,1-.52-7.86V49.29a2.16,2.16,0,0,1,1.88-2.17,2.09,2.09,0,0,1,2.3,2.08V46.93a2.15,2.15,0,0,1,1.88-2.17,2.09,2.09,0,0,1,2.3,2.08v-2.3A2.14,2.14,0,0,1,11,42.37a2.08,2.08,0,0,1,2.29,2.08v2.39a2.09,2.09,0,0,1,2.3-2.08,2.15,2.15,0,0,1,1.88,2.17V58.34a2.09,2.09,0,0,1,2.29-2.08,2.15,2.15,0,0,1,1.89,2.17v4.24a12.88,12.88,0,0,1-4.18,9.49Z"/><line class="cls-4" x1="17.46" y1="58.12" x2="17.46" y2="64.39"/><line class="cls-4" x1="13.28" y1="46.84" x2="13.28" y2="58.12"/><line class="cls-4" x1="9.11" y1="46.84" x2="9.11" y2="58.12"/><line class="cls-4" x1="4.93" y1="49.2" x2="4.93" y2="58.12"/><path class="cls-3" d="M2.15,72.16H17.46a0,0,0,0,1,0,0v29.6a7.65,7.65,0,0,1-7.65,7.65h0a7.65,7.65,0,0,1-7.65-7.65V72.16A0,0,0,0,1,2.15,72.16Z"/><line class="cls-3" x1="73.72" y1="104.03" x2="73.72" y2="82.81"/></g></g></g></svg>